<svg height="40" viewBox="0 0 80 40" width="80">
    <defs>
        <linearGradient id="area-gradient-COMP.NAI" x1="0" y1="0" x2="0" y2="1">
            <stop offset="0%" stop-color="var(--adaptiveColor)" stop-opacity="0.3"></stop>
            <stop offset="100%" stop-color="var(--adaptiveColor)" stop-opacity="0"></stop>
        </linearGradient>
    </defs>
    <line class="visx-line" x1="0" y1="34" x2="80" y2="34" fill="transparent" shape-rendering="crispEdges" aria-label="기준 가격" pointer-events="none" stroke="grey" stroke-dasharray="3" stroke-width="1"></line>
    <path class="visx-linepath" d="M0,15L0.6666666666666666,14.166666666666666C1.3333333333333333,13.333333333333334,2.6666666666666665,11.666666666666666,3.6666666666666665,11C4.666666666666667,10.333333333333334,5.333333333333333,10.666666666666666,6,10.333333333333334C6.666666666666667,10,7.333333333333333,9,8,8.166666666666666C8.666666666666666,7.333333333333333,9.333333333333334,6.666666666666667,10,6.5C10.666666666666666,6.333333333333333,11.333333333333334,6.666666666666667,12,7C12.666666666666666,7.333333333333333,13.333333333333334,7.666666666666667,14,8C14.666666666666666,8.333333333333334,15.333333333333334,8.666666666666666,16,9C16.666666666666668,9.333333333333334,17.333333333333332,9.666666666666666,18.166666666666668,9.833333333333334C19,10,20,10,20.833333333333332,10C21.666666666666668,10,22.333333333333332,10,23,10C23.666666666666668,10,24.333333333333332,10,25,10.333333333333334C25.666666666666668,10.666666666666666,26.333333333333332,11.333333333333334,27,11.833333333333334C27.666666666666668,12.333333333333334,28.333333333333332,12.666666666666666,29,13C29.666666666666668,13.333333333333334,30.333333333333332,13.666666666666666,31,13.333333333333334C31.666666666666668,13,32.333333333333336,12,33,11.666666666666666C33.666666666666664,11.333333333333334,34.333333333333336,11.666666666666666,35,11.666666666666666C35.666666666666664,11.666666666666666,36.333333333333336,11.333333333333334,37,10.833333333333334C37.666666666666664,10.333333333333334,38.333333333333336,9.666666666666666,39,9.333333333333334C39.666666666666664,9,40.333333333333336,9,41,9.333333333333334C41.666666666666664,9.666666666666666,42.333333333333336,10.333333333333334,43,10.5C43.666666666666664,10.666666666666666,44.333333333333336,10.333333333333334,45,9.833333333333334C45.666666666666664,9.333333333333334,46.333333333333336,8.666666666666666,47,8.166666666666666C47.666666666666664,7.666666666666667,48.333333333333336,7.333333333333333,49,7.333333333333333C49.666666666666664,7.333333333333333,50.333333333333336,7.666666666666667,51,7.833333333333333C51.666666666666664,8,52.333333333333336,8,53,7.833333333333333C53.666666666666664,7.666666666666667,54.333333333333336,7.333333333333333,55,7.166666666666667C55.666666666666664,7,56.333333333333336,7,57,6.833333333333333C57.666666666666664,6.666666666666667,58.333333333333336,6.333333333333333,59.166666666666664,6C60,5.666666666666667,61,5.333333333333333,61.833333333333336,5C62.666666666666664,4.666666666666667,63.333333333333336,4.333333333333333,64,4.333333333333333C64.66666666666667,4.333333333333333,65.33333333333333,4.666666666666667,66,4.833333333333333C66.66666666666667,5,67.33333333333333,5,68,5C68.66666666666667,5,69.33333333333333,5,70,4.833333333333333C70.66666666666667,4.666666666666667,71.33333333333333,4.333333333333333,72,4.166666666666667C72.66666666666667,4,73.33333333333333,4,74,4.166666666666667C74.66666666666667,4.333333333333333,75.33333333333333,4.666666666666667,76,4.833333333333333C76.66666666666667,5,77.33333333333333,5,78,5C78.66666666666667,5,79.33333333333333,5,79.66666666666667,5L80,5" fill="transparent" stroke-linecap="round" stroke="var(--adaptiveColor)" stroke-width="1.6"></path>
</svg>